# xmcd
#
# Track frame offsets: 
#        150
#        11448
#        25954
#        34041
#        49086
#        54228
#        83341
#        93836
#        106314
#        119759
#        133794
#        144494
#
# Disc length: 2080 seconds
#
# Revision: 0
# Processed by: cddbd v1.5.2PL0 Copyright (c) Steve Scherf et al.
# Submitted via: ExactAudioCopy v0.99pb4
#
DISCID=92081e0c
DTITLE=Various Artist - Chrome Depot Freestyles #1
DYEAR=1900
DGENRE=Hip-Hop
TTITLE0=Apathy and Rise - A Vibe Called Next Freestyle
TTITLE1=Apathy, Celph Titled and Graph - Rare Species Freestyle
TTITLE2=Celph Titled and Apathy - No Escapin' This Freestyle
TTITLE3=Rise and Apathy - Rockafella Freestyle
TTITLE4=Apathy - Show You How Freestyle
TTITLE5=Rise, Apathy, Wordsworth and Punchline - Eddie Ill Freestyle pt.
TTITLE5=1
TTITLE6=Celph Titled and Apathy - The Jig Is Up Freestyle
TTITLE7=Apathy, Romen Rok and Alius - Bar-B-Que Sauce Freestyle
TTITLE8=Rise and Apathy - Up On Prospect Freestyle
TTITLE9=Celph Titled, Louis Logic and Apathy - A Long Rhyme Comin Freest
TTITLE9=yle
TTITLE10=Apathy and Celph Titled - Look for the Name Freestyle
TTITLE11=Louis Logic and Apathy - Seen It All Freestyle
EXTD=
EXTT0=
EXTT1=
EXTT2=
EXTT3=
EXTT4=
EXTT5=
EXTT6=
EXTT7=
EXTT8=
EXTT9=
EXTT10=
EXTT11=
PLAYORDER=
